<?xml version="1.0" standalone="no"?>
<!DOCTYPE svg PUBLIC "-//W3C//DTD SVG 20010904//EN"
 "http://www.w3.org/TR/2001/REC-SVG-20010904/DTD/svg10.dtd">
<svg version="1.0" xmlns="http://www.w3.org/2000/svg"
 width="48.000000pt" height="48.000000pt" viewBox="0 0 48.000000 48.000000"
 preserveAspectRatio="xMidYMid meet">

<g transform="translate(0.000000,48.000000) scale(0.100000,-0.100000)"
fill="#000000" stroke="none">
<path d="M0 240 l0 -240 240 0 240 0 0 240 0 240 -240 0 -240 0 0 -240z m300
95 l41 -26 -3 -65 -3 -65 -47 -27 -48 -27 -47 27 -48 27 -3 65 -3 65 48 31
c53 33 53 33 113 -5z m-170 -90 c0 -8 -7 -15 -15 -15 -8 0 -15 7 -15 15 0 8 7
15 15 15 8 0 15 -7 15 -15z m250 0 c0 -8 -7 -15 -15 -15 -8 0 -15 7 -15 15 0
8 7 15 15 15 8 0 15 -7 15 -15z"/>
<path d="M193 328 c-31 -19 -33 -23 -33 -81 0 -62 0 -62 40 -85 l41 -23 39 22
c40 23 40 23 40 85 0 60 -1 63 -34 83 -40 25 -52 25 -93 -1z m38 -67 c10 -47
2 -61 -32 -61 -28 0 -29 1 -29 51 0 49 1 50 27 47 22 -2 29 -10 34 -37z m70
23 c9 -12 10 -20 2 -33 -7 -11 -8 -23 -1 -34 6 -11 5 -17 -2 -17 -6 0 -13 7
-16 15 -8 20 -21 19 -27 -2 -3 -10 -5 6 -6 35 -1 45 2 52 18 52 10 0 24 -7 32
-16z"/>
<path d="M190 270 c0 -5 7 -10 16 -10 8 0 12 5 9 10 -3 6 -10 10 -16 10 -5 0
-9 -4 -9 -10z"/>
<path d="M190 224 c0 -17 22 -14 28 4 2 7 -3 12 -12 12 -9 0 -16 -7 -16 -16z"/>
<path d="M260 264 c0 -17 22 -14 28 4 2 7 -3 12 -12 12 -9 0 -16 -7 -16 -16z"/>
</g>
</svg>
